G75*
%MOIN*%
%OFA0B0*%
%FSLAX25Y25*%
%IPPOS*%
%LPD*%
%AMOC8*
5,1,8,0,0,1.08239X$1,22.5*
%
%ADD10C,0.00000*%
%ADD11C,0.00300*%
%ADD12C,0.00500*%
%ADD13C,0.00800*%
%ADD14C,0.00600*%
%ADD15C,0.00400*%
%ADD16C,0.01181*%
%ADD17C,0.00197*%
D10*
X0010300Y0011300D02*
X0010300Y0086300D01*
X0015300Y0091300D01*
X0065300Y0091300D01*
X0085300Y0076300D01*
X0085300Y0011300D01*
X0080300Y0006300D01*
X0015300Y0006300D01*
X0010300Y0011300D01*
X0640221Y0006300D02*
X0640221Y0400001D01*
D11*
X0077255Y0074802D02*
X0077255Y0071900D01*
X0077738Y0073351D02*
X0075803Y0073351D01*
X0077255Y0074802D01*
X0074792Y0074319D02*
X0074792Y0073351D01*
X0074308Y0072867D01*
X0072857Y0072867D01*
X0072857Y0071900D02*
X0072857Y0074802D01*
X0074308Y0074802D01*
X0074792Y0074319D01*
X0073824Y0072867D02*
X0074792Y0071900D01*
X0055538Y0072200D02*
X0053603Y0072200D01*
X0054571Y0072200D02*
X0054571Y0075102D01*
X0053603Y0074135D01*
X0052592Y0074619D02*
X0052592Y0073651D01*
X0052108Y0073167D01*
X0050657Y0073167D01*
X0050657Y0072200D02*
X0050657Y0075102D01*
X0052108Y0075102D01*
X0052592Y0074619D01*
X0051624Y0073167D02*
X0052592Y0072200D01*
X0052001Y0064702D02*
X0050550Y0064702D01*
X0050550Y0061800D01*
X0050550Y0062767D02*
X0052001Y0062767D01*
X0052485Y0063251D01*
X0052485Y0064219D01*
X0052001Y0064702D01*
X0053497Y0064219D02*
X0053980Y0064702D01*
X0054948Y0064702D01*
X0055431Y0064219D01*
X0055431Y0063735D01*
X0053497Y0061800D01*
X0055431Y0061800D01*
X0052485Y0061800D02*
X0051517Y0062767D01*
X0051901Y0054902D02*
X0050450Y0054902D01*
X0050450Y0052000D01*
X0050450Y0052967D02*
X0051901Y0052967D01*
X0052385Y0053451D01*
X0052385Y0054419D01*
X0051901Y0054902D01*
X0053397Y0054419D02*
X0053880Y0054902D01*
X0054848Y0054902D01*
X0055331Y0054419D01*
X0055331Y0053935D01*
X0054848Y0053451D01*
X0055331Y0052967D01*
X0055331Y0052484D01*
X0054848Y0052000D01*
X0053880Y0052000D01*
X0053397Y0052484D01*
X0052385Y0052000D02*
X0051417Y0052967D01*
X0054364Y0053451D02*
X0054848Y0053451D01*
X0053417Y0045552D02*
X0053417Y0042650D01*
X0052450Y0042650D02*
X0054385Y0042650D01*
X0052450Y0044585D02*
X0053417Y0045552D01*
X0051438Y0045069D02*
X0050955Y0045552D01*
X0049987Y0045552D01*
X0049503Y0045069D01*
X0049503Y0043134D01*
X0049987Y0042650D01*
X0050955Y0042650D01*
X0051438Y0043134D01*
D12*
X0056550Y0079625D02*
X0056550Y0083375D01*
X0034650Y0083375D02*
X0034650Y0079625D01*
D13*
X0063800Y0060863D02*
X0063800Y0048737D01*
X0068800Y0044800D02*
X0078682Y0044800D01*
X0083800Y0048737D02*
X0083800Y0060863D01*
X0078682Y0064800D02*
X0068918Y0064800D01*
X0068800Y0054800D02*
X0068802Y0054941D01*
X0068808Y0055082D01*
X0068818Y0055222D01*
X0068832Y0055362D01*
X0068850Y0055502D01*
X0068871Y0055641D01*
X0068897Y0055780D01*
X0068926Y0055918D01*
X0068960Y0056054D01*
X0068997Y0056190D01*
X0069038Y0056325D01*
X0069083Y0056459D01*
X0069132Y0056591D01*
X0069184Y0056722D01*
X0069240Y0056851D01*
X0069300Y0056978D01*
X0069363Y0057104D01*
X0069429Y0057228D01*
X0069500Y0057351D01*
X0069573Y0057471D01*
X0069650Y0057589D01*
X0069730Y0057705D01*
X0069814Y0057818D01*
X0069900Y0057929D01*
X0069990Y0058038D01*
X0070083Y0058144D01*
X0070178Y0058247D01*
X0070277Y0058348D01*
X0070378Y0058446D01*
X0070482Y0058541D01*
X0070589Y0058633D01*
X0070698Y0058722D01*
X0070810Y0058807D01*
X0070924Y0058890D01*
X0071040Y0058970D01*
X0071159Y0059046D01*
X0071280Y0059118D01*
X0071402Y0059188D01*
X0071527Y0059253D01*
X0071653Y0059316D01*
X0071781Y0059374D01*
X0071911Y0059429D01*
X0072042Y0059481D01*
X0072175Y0059528D01*
X0072309Y0059572D01*
X0072444Y0059613D01*
X0072580Y0059649D01*
X0072717Y0059681D01*
X0072855Y0059710D01*
X0072993Y0059735D01*
X0073133Y0059755D01*
X0073273Y0059772D01*
X0073413Y0059785D01*
X0073554Y0059794D01*
X0073694Y0059799D01*
X0073835Y0059800D01*
X0073976Y0059797D01*
X0074117Y0059790D01*
X0074257Y0059779D01*
X0074397Y0059764D01*
X0074537Y0059745D01*
X0074676Y0059723D01*
X0074814Y0059696D01*
X0074952Y0059666D01*
X0075088Y0059631D01*
X0075224Y0059593D01*
X0075358Y0059551D01*
X0075492Y0059505D01*
X0075624Y0059456D01*
X0075754Y0059402D01*
X0075883Y0059345D01*
X0076010Y0059285D01*
X0076136Y0059221D01*
X0076259Y0059153D01*
X0076381Y0059082D01*
X0076501Y0059008D01*
X0076618Y0058930D01*
X0076733Y0058849D01*
X0076846Y0058765D01*
X0076957Y0058678D01*
X0077065Y0058587D01*
X0077170Y0058494D01*
X0077273Y0058397D01*
X0077373Y0058298D01*
X0077470Y0058196D01*
X0077564Y0058091D01*
X0077655Y0057984D01*
X0077743Y0057874D01*
X0077828Y0057762D01*
X0077910Y0057647D01*
X0077989Y0057530D01*
X0078064Y0057411D01*
X0078136Y0057290D01*
X0078204Y0057167D01*
X0078269Y0057042D01*
X0078331Y0056915D01*
X0078388Y0056786D01*
X0078443Y0056656D01*
X0078493Y0056525D01*
X0078540Y0056392D01*
X0078583Y0056258D01*
X0078622Y0056122D01*
X0078657Y0055986D01*
X0078689Y0055849D01*
X0078716Y0055711D01*
X0078740Y0055572D01*
X0078760Y0055432D01*
X0078776Y0055292D01*
X0078788Y0055152D01*
X0078796Y0055011D01*
X0078800Y0054870D01*
X0078800Y0054730D01*
X0078796Y0054589D01*
X0078788Y0054448D01*
X0078776Y0054308D01*
X0078760Y0054168D01*
X0078740Y0054028D01*
X0078716Y0053889D01*
X0078689Y0053751D01*
X0078657Y0053614D01*
X0078622Y0053478D01*
X0078583Y0053342D01*
X0078540Y0053208D01*
X0078493Y0053075D01*
X0078443Y0052944D01*
X0078388Y0052814D01*
X0078331Y0052685D01*
X0078269Y0052558D01*
X0078204Y0052433D01*
X0078136Y0052310D01*
X0078064Y0052189D01*
X0077989Y0052070D01*
X0077910Y0051953D01*
X0077828Y0051838D01*
X0077743Y0051726D01*
X0077655Y0051616D01*
X0077564Y0051509D01*
X0077470Y0051404D01*
X0077373Y0051302D01*
X0077273Y0051203D01*
X0077170Y0051106D01*
X0077065Y0051013D01*
X0076957Y0050922D01*
X0076846Y0050835D01*
X0076733Y0050751D01*
X0076618Y0050670D01*
X0076501Y0050592D01*
X0076381Y0050518D01*
X0076259Y0050447D01*
X0076136Y0050379D01*
X0076010Y0050315D01*
X0075883Y0050255D01*
X0075754Y0050198D01*
X0075624Y0050144D01*
X0075492Y0050095D01*
X0075358Y0050049D01*
X0075224Y0050007D01*
X0075088Y0049969D01*
X0074952Y0049934D01*
X0074814Y0049904D01*
X0074676Y0049877D01*
X0074537Y0049855D01*
X0074397Y0049836D01*
X0074257Y0049821D01*
X0074117Y0049810D01*
X0073976Y0049803D01*
X0073835Y0049800D01*
X0073694Y0049801D01*
X0073554Y0049806D01*
X0073413Y0049815D01*
X0073273Y0049828D01*
X0073133Y0049845D01*
X0072993Y0049865D01*
X0072855Y0049890D01*
X0072717Y0049919D01*
X0072580Y0049951D01*
X0072444Y0049987D01*
X0072309Y0050028D01*
X0072175Y0050072D01*
X0072042Y0050119D01*
X0071911Y0050171D01*
X0071781Y0050226D01*
X0071653Y0050284D01*
X0071527Y0050347D01*
X0071402Y0050412D01*
X0071280Y0050482D01*
X0071159Y0050554D01*
X0071040Y0050630D01*
X0070924Y0050710D01*
X0070810Y0050793D01*
X0070698Y0050878D01*
X0070589Y0050967D01*
X0070482Y0051059D01*
X0070378Y0051154D01*
X0070277Y0051252D01*
X0070178Y0051353D01*
X0070083Y0051456D01*
X0069990Y0051562D01*
X0069900Y0051671D01*
X0069814Y0051782D01*
X0069730Y0051895D01*
X0069650Y0052011D01*
X0069573Y0052129D01*
X0069500Y0052249D01*
X0069429Y0052372D01*
X0069363Y0052496D01*
X0069300Y0052622D01*
X0069240Y0052749D01*
X0069184Y0052878D01*
X0069132Y0053009D01*
X0069083Y0053141D01*
X0069038Y0053275D01*
X0068997Y0053410D01*
X0068960Y0053546D01*
X0068926Y0053682D01*
X0068897Y0053820D01*
X0068871Y0053959D01*
X0068850Y0054098D01*
X0068832Y0054238D01*
X0068818Y0054378D01*
X0068808Y0054518D01*
X0068802Y0054659D01*
X0068800Y0054800D01*
X0068918Y0034800D02*
X0078682Y0034800D01*
X0083800Y0030863D02*
X0083800Y0018737D01*
X0078682Y0014800D02*
X0068800Y0014800D01*
X0063800Y0018737D02*
X0063800Y0030863D01*
X0068800Y0024800D02*
X0068802Y0024941D01*
X0068808Y0025082D01*
X0068818Y0025222D01*
X0068832Y0025362D01*
X0068850Y0025502D01*
X0068871Y0025641D01*
X0068897Y0025780D01*
X0068926Y0025918D01*
X0068960Y0026054D01*
X0068997Y0026190D01*
X0069038Y0026325D01*
X0069083Y0026459D01*
X0069132Y0026591D01*
X0069184Y0026722D01*
X0069240Y0026851D01*
X0069300Y0026978D01*
X0069363Y0027104D01*
X0069429Y0027228D01*
X0069500Y0027351D01*
X0069573Y0027471D01*
X0069650Y0027589D01*
X0069730Y0027705D01*
X0069814Y0027818D01*
X0069900Y0027929D01*
X0069990Y0028038D01*
X0070083Y0028144D01*
X0070178Y0028247D01*
X0070277Y0028348D01*
X0070378Y0028446D01*
X0070482Y0028541D01*
X0070589Y0028633D01*
X0070698Y0028722D01*
X0070810Y0028807D01*
X0070924Y0028890D01*
X0071040Y0028970D01*
X0071159Y0029046D01*
X0071280Y0029118D01*
X0071402Y0029188D01*
X0071527Y0029253D01*
X0071653Y0029316D01*
X0071781Y0029374D01*
X0071911Y0029429D01*
X0072042Y0029481D01*
X0072175Y0029528D01*
X0072309Y0029572D01*
X0072444Y0029613D01*
X0072580Y0029649D01*
X0072717Y0029681D01*
X0072855Y0029710D01*
X0072993Y0029735D01*
X0073133Y0029755D01*
X0073273Y0029772D01*
X0073413Y0029785D01*
X0073554Y0029794D01*
X0073694Y0029799D01*
X0073835Y0029800D01*
X0073976Y0029797D01*
X0074117Y0029790D01*
X0074257Y0029779D01*
X0074397Y0029764D01*
X0074537Y0029745D01*
X0074676Y0029723D01*
X0074814Y0029696D01*
X0074952Y0029666D01*
X0075088Y0029631D01*
X0075224Y0029593D01*
X0075358Y0029551D01*
X0075492Y0029505D01*
X0075624Y0029456D01*
X0075754Y0029402D01*
X0075883Y0029345D01*
X0076010Y0029285D01*
X0076136Y0029221D01*
X0076259Y0029153D01*
X0076381Y0029082D01*
X0076501Y0029008D01*
X0076618Y0028930D01*
X0076733Y0028849D01*
X0076846Y0028765D01*
X0076957Y0028678D01*
X0077065Y0028587D01*
X0077170Y0028494D01*
X0077273Y0028397D01*
X0077373Y0028298D01*
X0077470Y0028196D01*
X0077564Y0028091D01*
X0077655Y0027984D01*
X0077743Y0027874D01*
X0077828Y0027762D01*
X0077910Y0027647D01*
X0077989Y0027530D01*
X0078064Y0027411D01*
X0078136Y0027290D01*
X0078204Y0027167D01*
X0078269Y0027042D01*
X0078331Y0026915D01*
X0078388Y0026786D01*
X0078443Y0026656D01*
X0078493Y0026525D01*
X0078540Y0026392D01*
X0078583Y0026258D01*
X0078622Y0026122D01*
X0078657Y0025986D01*
X0078689Y0025849D01*
X0078716Y0025711D01*
X0078740Y0025572D01*
X0078760Y0025432D01*
X0078776Y0025292D01*
X0078788Y0025152D01*
X0078796Y0025011D01*
X0078800Y0024870D01*
X0078800Y0024730D01*
X0078796Y0024589D01*
X0078788Y0024448D01*
X0078776Y0024308D01*
X0078760Y0024168D01*
X0078740Y0024028D01*
X0078716Y0023889D01*
X0078689Y0023751D01*
X0078657Y0023614D01*
X0078622Y0023478D01*
X0078583Y0023342D01*
X0078540Y0023208D01*
X0078493Y0023075D01*
X0078443Y0022944D01*
X0078388Y0022814D01*
X0078331Y0022685D01*
X0078269Y0022558D01*
X0078204Y0022433D01*
X0078136Y0022310D01*
X0078064Y0022189D01*
X0077989Y0022070D01*
X0077910Y0021953D01*
X0077828Y0021838D01*
X0077743Y0021726D01*
X0077655Y0021616D01*
X0077564Y0021509D01*
X0077470Y0021404D01*
X0077373Y0021302D01*
X0077273Y0021203D01*
X0077170Y0021106D01*
X0077065Y0021013D01*
X0076957Y0020922D01*
X0076846Y0020835D01*
X0076733Y0020751D01*
X0076618Y0020670D01*
X0076501Y0020592D01*
X0076381Y0020518D01*
X0076259Y0020447D01*
X0076136Y0020379D01*
X0076010Y0020315D01*
X0075883Y0020255D01*
X0075754Y0020198D01*
X0075624Y0020144D01*
X0075492Y0020095D01*
X0075358Y0020049D01*
X0075224Y0020007D01*
X0075088Y0019969D01*
X0074952Y0019934D01*
X0074814Y0019904D01*
X0074676Y0019877D01*
X0074537Y0019855D01*
X0074397Y0019836D01*
X0074257Y0019821D01*
X0074117Y0019810D01*
X0073976Y0019803D01*
X0073835Y0019800D01*
X0073694Y0019801D01*
X0073554Y0019806D01*
X0073413Y0019815D01*
X0073273Y0019828D01*
X0073133Y0019845D01*
X0072993Y0019865D01*
X0072855Y0019890D01*
X0072717Y0019919D01*
X0072580Y0019951D01*
X0072444Y0019987D01*
X0072309Y0020028D01*
X0072175Y0020072D01*
X0072042Y0020119D01*
X0071911Y0020171D01*
X0071781Y0020226D01*
X0071653Y0020284D01*
X0071527Y0020347D01*
X0071402Y0020412D01*
X0071280Y0020482D01*
X0071159Y0020554D01*
X0071040Y0020630D01*
X0070924Y0020710D01*
X0070810Y0020793D01*
X0070698Y0020878D01*
X0070589Y0020967D01*
X0070482Y0021059D01*
X0070378Y0021154D01*
X0070277Y0021252D01*
X0070178Y0021353D01*
X0070083Y0021456D01*
X0069990Y0021562D01*
X0069900Y0021671D01*
X0069814Y0021782D01*
X0069730Y0021895D01*
X0069650Y0022011D01*
X0069573Y0022129D01*
X0069500Y0022249D01*
X0069429Y0022372D01*
X0069363Y0022496D01*
X0069300Y0022622D01*
X0069240Y0022749D01*
X0069184Y0022878D01*
X0069132Y0023009D01*
X0069083Y0023141D01*
X0069038Y0023275D01*
X0068997Y0023410D01*
X0068960Y0023546D01*
X0068926Y0023682D01*
X0068897Y0023820D01*
X0068871Y0023959D01*
X0068850Y0024098D01*
X0068832Y0024238D01*
X0068818Y0024378D01*
X0068808Y0024518D01*
X0068802Y0024659D01*
X0068800Y0024800D01*
D14*
X0069780Y0035900D02*
X0069780Y0038502D01*
X0071081Y0038502D01*
X0071515Y0038069D01*
X0071515Y0037201D01*
X0071081Y0036767D01*
X0069780Y0036767D01*
X0070648Y0036767D02*
X0071515Y0035900D01*
X0072727Y0036334D02*
X0073160Y0035900D01*
X0074028Y0035900D01*
X0074462Y0036334D01*
X0074462Y0036767D01*
X0074028Y0037201D01*
X0073160Y0037201D01*
X0072727Y0037635D01*
X0072727Y0038069D01*
X0073160Y0038502D01*
X0074028Y0038502D01*
X0074462Y0038069D01*
X0075673Y0038502D02*
X0077408Y0038502D01*
X0076541Y0038502D02*
X0076541Y0035900D01*
X0032800Y0050800D02*
X0030300Y0048300D01*
X0015300Y0048300D01*
X0012800Y0050800D01*
X0012800Y0055800D01*
X0015300Y0058300D01*
X0030300Y0058300D01*
X0032800Y0055800D01*
X0032800Y0050800D01*
X0030300Y0058300D02*
X0032800Y0060800D01*
X0032800Y0065800D01*
X0030300Y0068300D01*
X0015300Y0068300D01*
X0012800Y0065800D01*
X0012800Y0060800D01*
X0015300Y0058300D01*
X0015300Y0068300D02*
X0012800Y0070800D01*
X0012800Y0075800D01*
X0015300Y0078300D01*
X0030300Y0078300D01*
X0032800Y0075800D01*
X0032800Y0070800D01*
X0030300Y0068300D01*
X0030300Y0078300D02*
X0032800Y0080800D01*
X0032800Y0085800D01*
X0030300Y0088300D01*
X0015300Y0088300D01*
X0012800Y0085800D01*
X0012800Y0080800D01*
X0015300Y0078300D01*
X0068407Y0068202D02*
X0068407Y0065600D01*
X0068407Y0066901D02*
X0069274Y0066901D01*
X0068407Y0068202D02*
X0070142Y0068202D01*
X0071353Y0068202D02*
X0071353Y0065600D01*
X0073088Y0065600D01*
X0074300Y0066034D02*
X0074734Y0065600D01*
X0075601Y0065600D01*
X0076035Y0066034D01*
X0076035Y0066467D01*
X0075601Y0066901D01*
X0074734Y0066901D01*
X0074300Y0067335D01*
X0074300Y0067769D01*
X0074734Y0068202D01*
X0075601Y0068202D01*
X0076035Y0067769D01*
X0077247Y0068202D02*
X0077247Y0065600D01*
X0077247Y0066901D02*
X0078981Y0066901D01*
X0078981Y0068202D02*
X0078981Y0065600D01*
D15*
X0058446Y0032446D02*
X0056871Y0032446D01*
X0058446Y0032446D02*
X0058446Y0030871D01*
X0040729Y0032446D02*
X0039154Y0032446D01*
X0039154Y0030871D01*
X0039154Y0014729D02*
X0039154Y0013154D01*
X0040729Y0013154D01*
X0056871Y0013154D02*
X0058446Y0013154D01*
X0058446Y0014729D01*
D16*
X0040237Y0031363D03*
D17*
X0031520Y0043564D02*
X0031520Y0014036D01*
X0011835Y0014036D01*
X0011835Y0043564D01*
X0031520Y0043564D01*
M02*
