G75*
%MOIN*%
%OFA0B0*%
%FSLAX25Y25*%
%IPPOS*%
%LPD*%
%AMOC8*
5,1,8,0,0,1.08239X$1,22.5*
%
%ADD10C,0.00000*%
%ADD11R,0.04731X0.04337*%
%ADD12C,0.01301*%
%ADD13R,0.03400X0.06400*%
%ADD14C,0.01969*%
%ADD15C,0.00400*%
%ADD16OC8,0.06400*%
%ADD17R,0.05518X0.06306*%
%ADD18C,0.04762*%
%ADD19C,0.05156*%
%ADD20R,0.05715X0.01975*%
%ADD21R,0.07480X0.07087*%
%ADD22R,0.07480X0.06201*%
D10*
X0010300Y0011300D02*
X0010300Y0086300D01*
X0015300Y0091300D01*
X0065300Y0091300D01*
X0085300Y0076300D01*
X0085300Y0011300D01*
X0080300Y0006300D01*
X0015300Y0006300D01*
X0010300Y0011300D01*
X0640221Y0006300D02*
X0640221Y0400001D01*
D11*
X0055646Y0038300D03*
X0048954Y0038300D03*
D12*
X0045871Y0079982D02*
X0045871Y0083018D01*
X0045871Y0079982D02*
X0042835Y0079982D01*
X0042835Y0083018D01*
X0045871Y0083018D01*
X0045871Y0081282D02*
X0042835Y0081282D01*
X0042835Y0082582D02*
X0045871Y0082582D01*
X0038965Y0083018D02*
X0038965Y0079982D01*
X0035929Y0079982D01*
X0035929Y0083018D01*
X0038965Y0083018D01*
X0038965Y0081282D02*
X0035929Y0081282D01*
X0035929Y0082582D02*
X0038965Y0082582D01*
X0060865Y0083018D02*
X0060865Y0079982D01*
X0057829Y0079982D01*
X0057829Y0083018D01*
X0060865Y0083018D01*
X0060865Y0081282D02*
X0057829Y0081282D01*
X0057829Y0082582D02*
X0060865Y0082582D01*
X0067771Y0083018D02*
X0067771Y0079982D01*
X0064735Y0079982D01*
X0064735Y0083018D01*
X0067771Y0083018D01*
X0067771Y0081282D02*
X0064735Y0081282D01*
X0064735Y0082582D02*
X0067771Y0082582D01*
D13*
X0066300Y0065800D03*
X0081300Y0065800D03*
X0081300Y0043800D03*
X0081300Y0035800D03*
X0066300Y0035800D03*
X0066300Y0043800D03*
X0066300Y0013800D03*
X0081300Y0013800D03*
D14*
X0054017Y0017583D02*
X0043583Y0017583D01*
X0043583Y0028017D01*
X0054017Y0028017D01*
X0054017Y0017583D01*
X0054017Y0018102D02*
X0043583Y0018102D01*
X0043583Y0020069D02*
X0054017Y0020069D01*
X0054017Y0022036D02*
X0043583Y0022036D01*
X0043583Y0024003D02*
X0054017Y0024003D01*
X0054017Y0025970D02*
X0043583Y0025970D01*
X0043583Y0027937D02*
X0054017Y0027937D01*
D15*
X0056871Y0027820D02*
X0058839Y0027820D01*
X0058839Y0028115D02*
X0058839Y0027328D01*
X0056871Y0027328D01*
X0056871Y0028115D01*
X0058839Y0028115D01*
X0058839Y0027421D02*
X0056871Y0027421D01*
X0056871Y0026146D02*
X0058839Y0026146D01*
X0058839Y0025359D01*
X0056871Y0025359D01*
X0056871Y0026146D01*
X0056871Y0025827D02*
X0058839Y0025827D01*
X0058839Y0025429D02*
X0056871Y0025429D01*
X0056871Y0024178D02*
X0058839Y0024178D01*
X0058839Y0023391D01*
X0056871Y0023391D01*
X0056871Y0024178D01*
X0056871Y0023834D02*
X0058839Y0023834D01*
X0058839Y0023436D02*
X0056871Y0023436D01*
X0056871Y0022209D02*
X0058839Y0022209D01*
X0058839Y0021422D01*
X0056871Y0021422D01*
X0056871Y0022209D01*
X0056871Y0021842D02*
X0058839Y0021842D01*
X0058839Y0021443D02*
X0056871Y0021443D01*
X0056871Y0020241D02*
X0058839Y0020241D01*
X0058839Y0019454D01*
X0056871Y0019454D01*
X0056871Y0020241D01*
X0056871Y0019849D02*
X0058839Y0019849D01*
X0058839Y0018272D02*
X0058839Y0017485D01*
X0056871Y0017485D01*
X0056871Y0018272D01*
X0058839Y0018272D01*
X0058839Y0018255D02*
X0056871Y0018255D01*
X0056871Y0017857D02*
X0058839Y0017857D01*
X0058839Y0016304D02*
X0058839Y0015517D01*
X0057068Y0015517D01*
X0056871Y0015713D01*
X0056871Y0016304D01*
X0058839Y0016304D01*
X0058839Y0016263D02*
X0056871Y0016263D01*
X0056871Y0015864D02*
X0058839Y0015864D01*
X0056083Y0014532D02*
X0055887Y0014729D01*
X0055296Y0014729D01*
X0055296Y0012761D01*
X0056083Y0012761D01*
X0056083Y0014532D01*
X0055947Y0014669D02*
X0055296Y0014669D01*
X0055296Y0014270D02*
X0056083Y0014270D01*
X0056083Y0013872D02*
X0055296Y0013872D01*
X0055296Y0013473D02*
X0056083Y0013473D01*
X0056083Y0013075D02*
X0055296Y0013075D01*
X0054115Y0013075D02*
X0053328Y0013075D01*
X0053328Y0012761D02*
X0054115Y0012761D01*
X0054115Y0014729D01*
X0053328Y0014729D01*
X0053328Y0012761D01*
X0053328Y0013473D02*
X0054115Y0013473D01*
X0054115Y0013872D02*
X0053328Y0013872D01*
X0053328Y0014270D02*
X0054115Y0014270D01*
X0054115Y0014669D02*
X0053328Y0014669D01*
X0052146Y0014669D02*
X0051359Y0014669D01*
X0051359Y0014729D02*
X0052146Y0014729D01*
X0052146Y0012761D01*
X0051359Y0012761D01*
X0051359Y0014729D01*
X0051359Y0014270D02*
X0052146Y0014270D01*
X0052146Y0013872D02*
X0051359Y0013872D01*
X0051359Y0013473D02*
X0052146Y0013473D01*
X0052146Y0013075D02*
X0051359Y0013075D01*
X0050178Y0013075D02*
X0049391Y0013075D01*
X0049391Y0012761D02*
X0050178Y0012761D01*
X0050178Y0014729D01*
X0049391Y0014729D01*
X0049391Y0012761D01*
X0049391Y0013473D02*
X0050178Y0013473D01*
X0050178Y0013872D02*
X0049391Y0013872D01*
X0049391Y0014270D02*
X0050178Y0014270D01*
X0050178Y0014669D02*
X0049391Y0014669D01*
X0048209Y0014669D02*
X0047422Y0014669D01*
X0047422Y0014729D02*
X0048209Y0014729D01*
X0048209Y0012761D01*
X0047422Y0012761D01*
X0047422Y0014729D01*
X0047422Y0014270D02*
X0048209Y0014270D01*
X0048209Y0013872D02*
X0047422Y0013872D01*
X0047422Y0013473D02*
X0048209Y0013473D01*
X0048209Y0013075D02*
X0047422Y0013075D01*
X0046241Y0013075D02*
X0045454Y0013075D01*
X0045454Y0012761D02*
X0046241Y0012761D01*
X0046241Y0014729D01*
X0045454Y0014729D01*
X0045454Y0012761D01*
X0045454Y0013473D02*
X0046241Y0013473D01*
X0046241Y0013872D02*
X0045454Y0013872D01*
X0045454Y0014270D02*
X0046241Y0014270D01*
X0046241Y0014669D02*
X0045454Y0014669D01*
X0044272Y0014669D02*
X0043485Y0014669D01*
X0043485Y0014729D02*
X0044272Y0014729D01*
X0044272Y0012761D01*
X0043485Y0012761D01*
X0043485Y0014729D01*
X0043485Y0014270D02*
X0044272Y0014270D01*
X0044272Y0013872D02*
X0043485Y0013872D01*
X0043485Y0013473D02*
X0044272Y0013473D01*
X0044272Y0013075D02*
X0043485Y0013075D01*
X0042304Y0013075D02*
X0041517Y0013075D01*
X0041517Y0012761D02*
X0042304Y0012761D01*
X0042304Y0014729D01*
X0041713Y0014729D01*
X0041517Y0014532D01*
X0041517Y0012761D01*
X0041517Y0013473D02*
X0042304Y0013473D01*
X0042304Y0013872D02*
X0041517Y0013872D01*
X0041517Y0014270D02*
X0042304Y0014270D01*
X0042304Y0014669D02*
X0041653Y0014669D01*
X0040729Y0015713D02*
X0040729Y0016304D01*
X0038761Y0016304D01*
X0038761Y0015517D01*
X0040532Y0015517D01*
X0040729Y0015713D01*
X0040729Y0015864D02*
X0038761Y0015864D01*
X0038761Y0016263D02*
X0040729Y0016263D01*
X0040729Y0017485D02*
X0038761Y0017485D01*
X0038761Y0018272D01*
X0040729Y0018272D01*
X0040729Y0017485D01*
X0040729Y0017857D02*
X0038761Y0017857D01*
X0038761Y0018255D02*
X0040729Y0018255D01*
X0040729Y0019454D02*
X0038761Y0019454D01*
X0038761Y0020241D01*
X0040729Y0020241D01*
X0040729Y0019454D01*
X0040729Y0019849D02*
X0038761Y0019849D01*
X0038761Y0021422D02*
X0038761Y0022209D01*
X0040729Y0022209D01*
X0040729Y0021422D01*
X0038761Y0021422D01*
X0038761Y0021443D02*
X0040729Y0021443D01*
X0040729Y0021842D02*
X0038761Y0021842D01*
X0038761Y0023391D02*
X0038761Y0024178D01*
X0040729Y0024178D01*
X0040729Y0023391D01*
X0038761Y0023391D01*
X0038761Y0023436D02*
X0040729Y0023436D01*
X0040729Y0023834D02*
X0038761Y0023834D01*
X0038761Y0025359D02*
X0038761Y0026146D01*
X0040729Y0026146D01*
X0040729Y0025359D01*
X0038761Y0025359D01*
X0038761Y0025429D02*
X0040729Y0025429D01*
X0040729Y0025827D02*
X0038761Y0025827D01*
X0038761Y0027328D02*
X0038761Y0028115D01*
X0040729Y0028115D01*
X0040729Y0027328D01*
X0038761Y0027328D01*
X0038761Y0027421D02*
X0040729Y0027421D01*
X0040729Y0027820D02*
X0038761Y0027820D01*
X0038761Y0029296D02*
X0038761Y0030083D01*
X0040532Y0030083D01*
X0040729Y0029887D01*
X0040729Y0029296D01*
X0038761Y0029296D01*
X0038761Y0029414D02*
X0040729Y0029414D01*
X0040729Y0029812D02*
X0038761Y0029812D01*
X0041517Y0031068D02*
X0041713Y0030871D01*
X0042304Y0030871D01*
X0042304Y0032839D01*
X0041517Y0032839D01*
X0041517Y0031068D01*
X0041577Y0031008D02*
X0042304Y0031008D01*
X0042304Y0031406D02*
X0041517Y0031406D01*
X0041517Y0031805D02*
X0042304Y0031805D01*
X0042304Y0032203D02*
X0041517Y0032203D01*
X0041517Y0032602D02*
X0042304Y0032602D01*
X0043485Y0032602D02*
X0044272Y0032602D01*
X0044272Y0032839D02*
X0043485Y0032839D01*
X0043485Y0030871D01*
X0044272Y0030871D01*
X0044272Y0032839D01*
X0044272Y0032203D02*
X0043485Y0032203D01*
X0043485Y0031805D02*
X0044272Y0031805D01*
X0044272Y0031406D02*
X0043485Y0031406D01*
X0043485Y0031008D02*
X0044272Y0031008D01*
X0045454Y0031008D02*
X0046241Y0031008D01*
X0046241Y0030871D02*
X0045454Y0030871D01*
X0045454Y0032839D01*
X0046241Y0032839D01*
X0046241Y0030871D01*
X0046241Y0031406D02*
X0045454Y0031406D01*
X0045454Y0031805D02*
X0046241Y0031805D01*
X0046241Y0032203D02*
X0045454Y0032203D01*
X0045454Y0032602D02*
X0046241Y0032602D01*
X0047422Y0032602D02*
X0048209Y0032602D01*
X0048209Y0032839D02*
X0047422Y0032839D01*
X0047422Y0030871D01*
X0048209Y0030871D01*
X0048209Y0032839D01*
X0048209Y0032203D02*
X0047422Y0032203D01*
X0047422Y0031805D02*
X0048209Y0031805D01*
X0048209Y0031406D02*
X0047422Y0031406D01*
X0047422Y0031008D02*
X0048209Y0031008D01*
X0049391Y0031008D02*
X0050178Y0031008D01*
X0050178Y0030871D02*
X0049391Y0030871D01*
X0049391Y0032839D01*
X0050178Y0032839D01*
X0050178Y0030871D01*
X0050178Y0031406D02*
X0049391Y0031406D01*
X0049391Y0031805D02*
X0050178Y0031805D01*
X0050178Y0032203D02*
X0049391Y0032203D01*
X0049391Y0032602D02*
X0050178Y0032602D01*
X0051359Y0032602D02*
X0052146Y0032602D01*
X0052146Y0032839D02*
X0051359Y0032839D01*
X0051359Y0030871D01*
X0052146Y0030871D01*
X0052146Y0032839D01*
X0052146Y0032203D02*
X0051359Y0032203D01*
X0051359Y0031805D02*
X0052146Y0031805D01*
X0052146Y0031406D02*
X0051359Y0031406D01*
X0051359Y0031008D02*
X0052146Y0031008D01*
X0053328Y0031008D02*
X0054115Y0031008D01*
X0054115Y0030871D02*
X0053328Y0030871D01*
X0053328Y0032839D01*
X0054115Y0032839D01*
X0054115Y0030871D01*
X0054115Y0031406D02*
X0053328Y0031406D01*
X0053328Y0031805D02*
X0054115Y0031805D01*
X0054115Y0032203D02*
X0053328Y0032203D01*
X0053328Y0032602D02*
X0054115Y0032602D01*
X0055296Y0032602D02*
X0056083Y0032602D01*
X0056083Y0032839D02*
X0055296Y0032839D01*
X0055296Y0030871D01*
X0055887Y0030871D01*
X0056083Y0031068D01*
X0056083Y0032839D01*
X0056083Y0032203D02*
X0055296Y0032203D01*
X0055296Y0031805D02*
X0056083Y0031805D01*
X0056083Y0031406D02*
X0055296Y0031406D01*
X0055296Y0031008D02*
X0056023Y0031008D01*
X0057068Y0030083D02*
X0056871Y0029887D01*
X0056871Y0029296D01*
X0058839Y0029296D01*
X0058839Y0030083D01*
X0057068Y0030083D01*
X0056871Y0029812D02*
X0058839Y0029812D01*
X0058839Y0029414D02*
X0056871Y0029414D01*
D16*
X0027800Y0053300D03*
X0027800Y0063300D03*
X0017800Y0063300D03*
X0017800Y0053300D03*
X0017800Y0073300D03*
X0017800Y0083300D03*
X0027800Y0083300D03*
X0027800Y0073300D03*
D17*
X0038754Y0073800D03*
X0045446Y0073800D03*
X0060854Y0073700D03*
X0067546Y0073700D03*
X0045146Y0062800D03*
X0038454Y0062800D03*
X0038454Y0052800D03*
X0045146Y0052800D03*
D18*
X0022481Y0045237D02*
X0018119Y0045237D01*
X0018119Y0012363D02*
X0022481Y0012363D01*
D19*
X0029733Y0020040D02*
X0034489Y0020040D01*
X0034489Y0037560D02*
X0029733Y0037560D01*
D20*
X0031324Y0033918D03*
X0031324Y0031359D03*
X0031324Y0028800D03*
X0031324Y0026241D03*
X0031324Y0023682D03*
D21*
X0020300Y0024272D03*
X0020300Y0033328D03*
D22*
X0020300Y0042137D03*
X0020300Y0015463D03*
M02*
