G75*
%MOIN*%
%OFA0B0*%
%FSLAX25Y25*%
%IPPOS*%
%LPD*%
%AMOC8*
5,1,8,0,0,1.08239X$1,22.5*
%
%ADD10C,0.00000*%
%ADD11OC8,0.06000*%
%ADD12C,0.04362*%
%ADD13C,0.04756*%
%ADD14C,0.00600*%
%ADD15C,0.02400*%
%ADD16C,0.01600*%
D10*
X0010300Y0011300D02*
X0010300Y0086300D01*
X0015300Y0091300D01*
X0065300Y0091300D01*
X0085300Y0076300D01*
X0085300Y0011300D01*
X0080300Y0006300D01*
X0015300Y0006300D01*
X0010300Y0011300D01*
X0640221Y0006300D02*
X0640221Y0400001D01*
D11*
X0027800Y0083300D03*
X0027800Y0073300D03*
X0017800Y0073300D03*
X0017800Y0083300D03*
X0017800Y0063300D03*
X0017800Y0053300D03*
X0027800Y0053300D03*
X0027800Y0063300D03*
D12*
X0022481Y0045237D02*
X0018119Y0045237D01*
X0018119Y0012363D02*
X0022481Y0012363D01*
D13*
X0029733Y0020040D02*
X0034489Y0020040D01*
X0034489Y0037560D02*
X0029733Y0037560D01*
D14*
X0039700Y0033900D02*
X0044500Y0038700D01*
X0039700Y0033900D02*
X0058300Y0015300D01*
X0058300Y0012900D01*
X0053500Y0010500D02*
X0036700Y0027300D01*
X0036100Y0027300D01*
X0025900Y0024300D02*
X0024100Y0022500D01*
X0024100Y0017700D01*
X0025900Y0015900D01*
X0066700Y0024900D02*
X0066700Y0030900D01*
X0066700Y0034500D01*
X0028300Y0072900D01*
X0027800Y0073300D01*
X0032500Y0078300D02*
X0027700Y0083100D01*
X0027800Y0083300D01*
D15*
X0032500Y0078300D03*
X0044500Y0038700D03*
X0039700Y0033900D03*
X0036100Y0027300D03*
X0036700Y0024300D03*
X0025900Y0024300D03*
X0026500Y0033900D03*
X0025900Y0015900D03*
X0053500Y0010500D03*
X0058300Y0012900D03*
X0061300Y0012900D03*
X0061300Y0021300D03*
X0066700Y0024900D03*
X0066700Y0030900D03*
D16*
X0069110Y0031876D02*
X0083700Y0031876D01*
X0083700Y0030278D02*
X0069256Y0030278D01*
X0069300Y0030383D02*
X0069300Y0031417D01*
X0068904Y0032373D01*
X0068400Y0032877D01*
X0068400Y0035204D01*
X0032163Y0071441D01*
X0032200Y0071477D01*
X0032200Y0075123D01*
X0031368Y0075955D01*
X0031983Y0075700D01*
X0033017Y0075700D01*
X0033973Y0076096D01*
X0034704Y0076827D01*
X0035100Y0077783D01*
X0035100Y0078817D01*
X0034704Y0079773D01*
X0033973Y0080504D01*
X0033017Y0080900D01*
X0032304Y0080900D01*
X0031963Y0081241D01*
X0032200Y0081477D01*
X0032200Y0085123D01*
X0029623Y0087700D01*
X0025977Y0087700D01*
X0023400Y0085123D01*
X0023400Y0081477D01*
X0025977Y0078900D01*
X0029496Y0078900D01*
X0029900Y0078496D01*
X0029900Y0077783D01*
X0030155Y0077168D01*
X0029623Y0077700D01*
X0025977Y0077700D01*
X0023400Y0075123D01*
X0023400Y0071477D01*
X0025977Y0068900D01*
X0029623Y0068900D01*
X0029759Y0069037D01*
X0065000Y0033796D01*
X0065000Y0032877D01*
X0064496Y0032373D01*
X0064100Y0031417D01*
X0064100Y0030383D01*
X0064496Y0029427D01*
X0065000Y0028923D01*
X0065000Y0026877D01*
X0064496Y0026373D01*
X0064100Y0025417D01*
X0064100Y0024383D01*
X0064496Y0023427D01*
X0065227Y0022696D01*
X0066183Y0022300D01*
X0067217Y0022300D01*
X0068173Y0022696D01*
X0068904Y0023427D01*
X0069300Y0024383D01*
X0069300Y0025417D01*
X0068904Y0026373D01*
X0068400Y0026877D01*
X0068400Y0028923D01*
X0068904Y0029427D01*
X0069300Y0030383D01*
X0068400Y0028679D02*
X0083700Y0028679D01*
X0083700Y0027081D02*
X0068400Y0027081D01*
X0069273Y0025482D02*
X0083700Y0025482D01*
X0083700Y0023884D02*
X0069093Y0023884D01*
X0064307Y0023884D02*
X0062833Y0023884D01*
X0062721Y0023959D02*
X0062175Y0024185D01*
X0061595Y0024300D01*
X0061300Y0024300D01*
X0061300Y0021300D01*
X0064300Y0021300D01*
X0064300Y0021595D01*
X0064185Y0022175D01*
X0063959Y0022721D01*
X0063630Y0023212D01*
X0063212Y0023630D01*
X0062721Y0023959D01*
X0061300Y0023884D02*
X0061300Y0023884D01*
X0061300Y0024300D02*
X0061300Y0021300D01*
X0061300Y0021300D01*
X0061300Y0021300D01*
X0064300Y0021300D01*
X0064300Y0021005D01*
X0064185Y0020425D01*
X0063959Y0019879D01*
X0063630Y0019388D01*
X0063212Y0018970D01*
X0062721Y0018641D01*
X0062175Y0018415D01*
X0061595Y0018300D01*
X0061300Y0018300D01*
X0061300Y0021300D01*
X0061300Y0021300D01*
X0061300Y0021300D01*
X0058300Y0021300D01*
X0058300Y0021595D01*
X0058415Y0022175D01*
X0058641Y0022721D01*
X0058970Y0023212D01*
X0059388Y0023630D01*
X0059879Y0023959D01*
X0060425Y0024185D01*
X0061005Y0024300D01*
X0061300Y0024300D01*
X0059767Y0023884D02*
X0052121Y0023884D01*
X0053719Y0022285D02*
X0058461Y0022285D01*
X0058300Y0021300D02*
X0058300Y0021005D01*
X0058415Y0020425D01*
X0058641Y0019879D01*
X0058970Y0019388D01*
X0059388Y0018970D01*
X0059879Y0018641D01*
X0060425Y0018415D01*
X0061005Y0018300D01*
X0061300Y0018300D01*
X0061300Y0021300D01*
X0058300Y0021300D01*
X0058363Y0020687D02*
X0055318Y0020687D01*
X0056916Y0019088D02*
X0059269Y0019088D01*
X0058515Y0017490D02*
X0083700Y0017490D01*
X0083700Y0019088D02*
X0063331Y0019088D01*
X0064237Y0020687D02*
X0083700Y0020687D01*
X0083700Y0022285D02*
X0064139Y0022285D01*
X0061300Y0022285D02*
X0061300Y0022285D01*
X0061300Y0020687D02*
X0061300Y0020687D01*
X0061300Y0019088D02*
X0061300Y0019088D01*
X0061300Y0015900D02*
X0061595Y0015900D01*
X0062175Y0015785D01*
X0062721Y0015559D01*
X0063212Y0015230D01*
X0063630Y0014812D01*
X0063959Y0014321D01*
X0064185Y0013775D01*
X0064300Y0013195D01*
X0064300Y0012900D01*
X0061300Y0012900D01*
X0061300Y0012900D01*
X0061300Y0012900D01*
X0061300Y0015900D01*
X0061005Y0015900D01*
X0060425Y0015785D01*
X0060000Y0015609D01*
X0060000Y0016004D01*
X0042300Y0033704D01*
X0042300Y0034096D01*
X0044304Y0036100D01*
X0045017Y0036100D01*
X0045973Y0036496D01*
X0046704Y0037227D01*
X0047100Y0038183D01*
X0047100Y0039217D01*
X0046704Y0040173D01*
X0045973Y0040904D01*
X0045017Y0041300D01*
X0043983Y0041300D01*
X0043027Y0040904D01*
X0042296Y0040173D01*
X0041900Y0039217D01*
X0041900Y0038504D01*
X0039896Y0036500D01*
X0039183Y0036500D01*
X0038227Y0036104D01*
X0037797Y0035674D01*
X0038267Y0036808D01*
X0038267Y0038311D01*
X0037692Y0039700D01*
X0036629Y0040763D01*
X0035240Y0041338D01*
X0028982Y0041338D01*
X0027593Y0040763D01*
X0026530Y0039700D01*
X0025955Y0038311D01*
X0025955Y0036850D01*
X0025625Y0036785D01*
X0025079Y0036559D01*
X0024588Y0036230D01*
X0024170Y0035812D01*
X0023841Y0035321D01*
X0023615Y0034775D01*
X0023500Y0034195D01*
X0023500Y0033900D01*
X0026500Y0033900D01*
X0026500Y0030900D01*
X0026795Y0030900D01*
X0027375Y0031015D01*
X0027921Y0031241D01*
X0028412Y0031570D01*
X0028830Y0031988D01*
X0029159Y0032479D01*
X0029385Y0033025D01*
X0029500Y0033605D01*
X0029500Y0033782D01*
X0035240Y0033782D01*
X0036629Y0034357D01*
X0037391Y0035119D01*
X0037100Y0034417D01*
X0037100Y0033383D01*
X0037496Y0032427D01*
X0038227Y0031696D01*
X0039183Y0031300D01*
X0039896Y0031300D01*
X0056459Y0014736D01*
X0056096Y0014373D01*
X0055700Y0013417D01*
X0055700Y0012383D01*
X0056096Y0011427D01*
X0056827Y0010696D01*
X0057783Y0010300D01*
X0058817Y0010300D01*
X0059419Y0010549D01*
X0059879Y0010241D01*
X0060425Y0010015D01*
X0061005Y0009900D01*
X0061300Y0009900D01*
X0061595Y0009900D01*
X0062175Y0010015D01*
X0062721Y0010241D01*
X0063212Y0010570D01*
X0063630Y0010988D01*
X0063959Y0011479D01*
X0064185Y0012025D01*
X0064300Y0012605D01*
X0064300Y0012900D01*
X0061300Y0012900D01*
X0061300Y0009900D01*
X0061300Y0012900D01*
X0061300Y0012900D01*
X0061300Y0015900D01*
X0061300Y0015891D02*
X0061300Y0015891D01*
X0061640Y0015891D02*
X0083700Y0015891D01*
X0083700Y0014293D02*
X0063970Y0014293D01*
X0064300Y0012694D02*
X0083700Y0012694D01*
X0083700Y0011963D02*
X0079637Y0007900D01*
X0015963Y0007900D01*
X0011900Y0011963D01*
X0011900Y0085637D01*
X0015963Y0089700D01*
X0064767Y0089700D01*
X0083700Y0075500D01*
X0083700Y0011963D01*
X0082833Y0011096D02*
X0063702Y0011096D01*
X0061300Y0011096D02*
X0061300Y0011096D01*
X0061300Y0012694D02*
X0061300Y0012694D01*
X0061300Y0014293D02*
X0061300Y0014293D01*
X0060960Y0015891D02*
X0060000Y0015891D01*
X0056063Y0014293D02*
X0052112Y0014293D01*
X0053304Y0013100D02*
X0038700Y0027704D01*
X0038700Y0027817D01*
X0038304Y0028773D01*
X0037573Y0029504D01*
X0036617Y0029900D01*
X0035583Y0029900D01*
X0034627Y0029504D01*
X0033896Y0028773D01*
X0033500Y0027817D01*
X0033500Y0026783D01*
X0033896Y0025827D01*
X0034030Y0025693D01*
X0033815Y0025175D01*
X0033700Y0024595D01*
X0033700Y0024300D01*
X0036700Y0024300D01*
X0036700Y0024300D01*
X0033700Y0024300D01*
X0033700Y0024005D01*
X0033737Y0023818D01*
X0028982Y0023818D01*
X0028418Y0023585D01*
X0028500Y0023783D01*
X0028500Y0024817D01*
X0028104Y0025773D01*
X0027373Y0026504D01*
X0026417Y0026900D01*
X0025383Y0026900D01*
X0024427Y0026504D01*
X0023696Y0025773D01*
X0023300Y0024817D01*
X0023300Y0024104D01*
X0022400Y0023204D01*
X0022400Y0016996D01*
X0023300Y0016096D01*
X0023300Y0015900D01*
X0023193Y0015944D01*
X0017407Y0015944D01*
X0016090Y0015399D01*
X0015083Y0014392D01*
X0014538Y0013075D01*
X0014538Y0011651D01*
X0015083Y0010334D01*
X0016090Y0009327D01*
X0017407Y0008782D01*
X0023193Y0008782D01*
X0024510Y0009327D01*
X0025517Y0010334D01*
X0026062Y0011651D01*
X0026062Y0013075D01*
X0025969Y0013300D01*
X0026417Y0013300D01*
X0027373Y0013696D01*
X0028104Y0014427D01*
X0028500Y0015383D01*
X0028500Y0016417D01*
X0028478Y0016471D01*
X0028982Y0016262D01*
X0035240Y0016262D01*
X0036629Y0016837D01*
X0037692Y0017900D01*
X0038267Y0019289D01*
X0038267Y0020792D01*
X0037945Y0021569D01*
X0038121Y0021641D01*
X0038612Y0021970D01*
X0039030Y0022388D01*
X0039102Y0022494D01*
X0050900Y0010696D01*
X0050900Y0009983D01*
X0051296Y0009027D01*
X0052027Y0008296D01*
X0052983Y0007900D01*
X0054017Y0007900D01*
X0054973Y0008296D01*
X0055704Y0009027D01*
X0056100Y0009983D01*
X0056100Y0011017D01*
X0055704Y0011973D01*
X0054973Y0012704D01*
X0054017Y0013100D01*
X0053304Y0013100D01*
X0054983Y0012694D02*
X0055700Y0012694D01*
X0056068Y0011096D02*
X0056428Y0011096D01*
X0055899Y0009497D02*
X0081234Y0009497D01*
X0064127Y0025482D02*
X0050522Y0025482D01*
X0048923Y0027081D02*
X0065000Y0027081D01*
X0065000Y0028679D02*
X0047325Y0028679D01*
X0045726Y0030278D02*
X0064144Y0030278D01*
X0064290Y0031876D02*
X0044128Y0031876D01*
X0042529Y0033475D02*
X0065000Y0033475D01*
X0063723Y0035073D02*
X0043277Y0035073D01*
X0046149Y0036672D02*
X0062124Y0036672D01*
X0060526Y0038270D02*
X0047100Y0038270D01*
X0046830Y0039869D02*
X0058927Y0039869D01*
X0057329Y0041467D02*
X0011900Y0041467D01*
X0011900Y0039869D02*
X0026699Y0039869D01*
X0025955Y0038270D02*
X0011900Y0038270D01*
X0011900Y0036672D02*
X0025352Y0036672D01*
X0023739Y0035073D02*
X0011900Y0035073D01*
X0011900Y0033475D02*
X0023526Y0033475D01*
X0023500Y0033605D02*
X0023615Y0033025D01*
X0023841Y0032479D01*
X0024170Y0031988D01*
X0024588Y0031570D01*
X0025079Y0031241D01*
X0025625Y0031015D01*
X0026205Y0030900D01*
X0026500Y0030900D01*
X0026500Y0033900D01*
X0026500Y0033900D01*
X0026500Y0033900D01*
X0023500Y0033900D01*
X0023500Y0033605D01*
X0024281Y0031876D02*
X0011900Y0031876D01*
X0011900Y0030278D02*
X0040918Y0030278D01*
X0042517Y0028679D02*
X0038343Y0028679D01*
X0039323Y0027081D02*
X0044115Y0027081D01*
X0045714Y0025482D02*
X0040922Y0025482D01*
X0042521Y0023884D02*
X0047312Y0023884D01*
X0048911Y0022285D02*
X0044119Y0022285D01*
X0045718Y0020687D02*
X0050509Y0020687D01*
X0052108Y0019088D02*
X0047316Y0019088D01*
X0048915Y0017490D02*
X0053706Y0017490D01*
X0055305Y0015891D02*
X0050513Y0015891D01*
X0048902Y0012694D02*
X0026062Y0012694D01*
X0025832Y0011096D02*
X0050500Y0011096D01*
X0051101Y0009497D02*
X0024680Y0009497D01*
X0027970Y0014293D02*
X0047303Y0014293D01*
X0045705Y0015891D02*
X0028500Y0015891D01*
X0022400Y0017490D02*
X0011900Y0017490D01*
X0011900Y0019088D02*
X0022400Y0019088D01*
X0022400Y0020687D02*
X0011900Y0020687D01*
X0011900Y0022285D02*
X0022400Y0022285D01*
X0023079Y0023884D02*
X0011900Y0023884D01*
X0011900Y0025482D02*
X0023575Y0025482D01*
X0028225Y0025482D02*
X0033942Y0025482D01*
X0033724Y0023884D02*
X0028500Y0023884D01*
X0033500Y0027081D02*
X0011900Y0027081D01*
X0011900Y0028679D02*
X0033857Y0028679D01*
X0038047Y0031876D02*
X0028719Y0031876D01*
X0029474Y0033475D02*
X0037100Y0033475D01*
X0037345Y0035073D02*
X0037372Y0035073D01*
X0038210Y0036672D02*
X0040068Y0036672D01*
X0041666Y0038270D02*
X0038267Y0038270D01*
X0037523Y0039869D02*
X0042170Y0039869D01*
X0050935Y0047861D02*
X0024921Y0047861D01*
X0024510Y0048273D02*
X0025517Y0047266D01*
X0026062Y0045949D01*
X0026062Y0044525D01*
X0025517Y0043208D01*
X0024510Y0042201D01*
X0023193Y0041656D01*
X0017407Y0041656D01*
X0016090Y0042201D01*
X0015083Y0043208D01*
X0014538Y0044525D01*
X0014538Y0045949D01*
X0015083Y0047266D01*
X0016090Y0048273D01*
X0016639Y0048500D01*
X0015812Y0048500D01*
X0013000Y0051312D01*
X0013000Y0053100D01*
X0017600Y0053100D01*
X0017600Y0053500D01*
X0017600Y0058100D01*
X0015812Y0058100D01*
X0013000Y0055288D01*
X0013000Y0053500D01*
X0017600Y0053500D01*
X0018000Y0053500D01*
X0018000Y0058100D01*
X0019788Y0058100D01*
X0022600Y0055288D01*
X0022600Y0053500D01*
X0018000Y0053500D01*
X0018000Y0053100D01*
X0022600Y0053100D01*
X0022600Y0051312D01*
X0020106Y0048818D01*
X0023193Y0048818D01*
X0024510Y0048273D01*
X0025418Y0049460D02*
X0020748Y0049460D01*
X0022347Y0051058D02*
X0023819Y0051058D01*
X0023400Y0051477D02*
X0025977Y0048900D01*
X0029623Y0048900D01*
X0032200Y0051477D01*
X0032200Y0055123D01*
X0029623Y0057700D01*
X0025977Y0057700D01*
X0023400Y0055123D01*
X0023400Y0051477D01*
X0023400Y0052657D02*
X0022600Y0052657D01*
X0022600Y0054255D02*
X0023400Y0054255D01*
X0024131Y0055854D02*
X0022034Y0055854D01*
X0020436Y0057452D02*
X0025730Y0057452D01*
X0025977Y0058900D02*
X0029623Y0058900D01*
X0032200Y0061477D01*
X0032200Y0065123D01*
X0029623Y0067700D01*
X0025977Y0067700D01*
X0023400Y0065123D01*
X0023400Y0061477D01*
X0025977Y0058900D01*
X0025827Y0059051D02*
X0019773Y0059051D01*
X0019623Y0058900D02*
X0022200Y0061477D01*
X0022200Y0065123D01*
X0019623Y0067700D01*
X0015977Y0067700D01*
X0013400Y0065123D01*
X0013400Y0061477D01*
X0015977Y0058900D01*
X0019623Y0058900D01*
X0018000Y0057452D02*
X0017600Y0057452D01*
X0017600Y0055854D02*
X0018000Y0055854D01*
X0018000Y0054255D02*
X0017600Y0054255D01*
X0015164Y0057452D02*
X0011900Y0057452D01*
X0011900Y0055854D02*
X0013566Y0055854D01*
X0013000Y0054255D02*
X0011900Y0054255D01*
X0011900Y0052657D02*
X0013000Y0052657D01*
X0013253Y0051058D02*
X0011900Y0051058D01*
X0011900Y0049460D02*
X0014852Y0049460D01*
X0015679Y0047861D02*
X0011900Y0047861D01*
X0011900Y0046263D02*
X0014668Y0046263D01*
X0014538Y0044664D02*
X0011900Y0044664D01*
X0011900Y0043066D02*
X0015226Y0043066D01*
X0025374Y0043066D02*
X0055730Y0043066D01*
X0054132Y0044664D02*
X0026062Y0044664D01*
X0025932Y0046263D02*
X0052533Y0046263D01*
X0054144Y0049460D02*
X0083700Y0049460D01*
X0083700Y0051058D02*
X0052546Y0051058D01*
X0050947Y0052657D02*
X0083700Y0052657D01*
X0083700Y0054255D02*
X0049349Y0054255D01*
X0047750Y0055854D02*
X0083700Y0055854D01*
X0083700Y0057452D02*
X0046152Y0057452D01*
X0044553Y0059051D02*
X0083700Y0059051D01*
X0083700Y0060649D02*
X0042955Y0060649D01*
X0041356Y0062248D02*
X0083700Y0062248D01*
X0083700Y0063846D02*
X0039758Y0063846D01*
X0038159Y0065445D02*
X0083700Y0065445D01*
X0083700Y0067043D02*
X0036561Y0067043D01*
X0034962Y0068642D02*
X0083700Y0068642D01*
X0083700Y0070240D02*
X0033364Y0070240D01*
X0032200Y0071839D02*
X0083700Y0071839D01*
X0083700Y0073437D02*
X0032200Y0073437D01*
X0032200Y0075036D02*
X0083700Y0075036D01*
X0082187Y0076634D02*
X0034511Y0076634D01*
X0035100Y0078233D02*
X0080056Y0078233D01*
X0077925Y0079832D02*
X0034645Y0079832D01*
X0032153Y0081430D02*
X0075793Y0081430D01*
X0073662Y0083029D02*
X0032200Y0083029D01*
X0032200Y0084627D02*
X0071531Y0084627D01*
X0069399Y0086226D02*
X0031097Y0086226D01*
X0024503Y0086226D02*
X0021097Y0086226D01*
X0022200Y0085123D02*
X0019623Y0087700D01*
X0015977Y0087700D01*
X0013400Y0085123D01*
X0013400Y0081477D01*
X0015977Y0078900D01*
X0019623Y0078900D01*
X0022200Y0081477D01*
X0022200Y0085123D01*
X0022200Y0084627D02*
X0023400Y0084627D01*
X0023400Y0083029D02*
X0022200Y0083029D01*
X0022153Y0081430D02*
X0023447Y0081430D01*
X0025046Y0079832D02*
X0020554Y0079832D01*
X0019623Y0077700D02*
X0015977Y0077700D01*
X0013400Y0075123D01*
X0013400Y0071477D01*
X0015977Y0068900D01*
X0019623Y0068900D01*
X0022200Y0071477D01*
X0022200Y0075123D01*
X0019623Y0077700D01*
X0020688Y0076634D02*
X0024912Y0076634D01*
X0023400Y0075036D02*
X0022200Y0075036D01*
X0022200Y0073437D02*
X0023400Y0073437D01*
X0023400Y0071839D02*
X0022200Y0071839D01*
X0020963Y0070240D02*
X0024637Y0070240D01*
X0025321Y0067043D02*
X0020279Y0067043D01*
X0021878Y0065445D02*
X0023722Y0065445D01*
X0023400Y0063846D02*
X0022200Y0063846D01*
X0022200Y0062248D02*
X0023400Y0062248D01*
X0024228Y0060649D02*
X0021372Y0060649D01*
X0015827Y0059051D02*
X0011900Y0059051D01*
X0011900Y0060649D02*
X0014228Y0060649D01*
X0013400Y0062248D02*
X0011900Y0062248D01*
X0011900Y0063846D02*
X0013400Y0063846D01*
X0013722Y0065445D02*
X0011900Y0065445D01*
X0011900Y0067043D02*
X0015321Y0067043D01*
X0014637Y0070240D02*
X0011900Y0070240D01*
X0011900Y0068642D02*
X0030154Y0068642D01*
X0030279Y0067043D02*
X0031752Y0067043D01*
X0031878Y0065445D02*
X0033351Y0065445D01*
X0032200Y0063846D02*
X0034949Y0063846D01*
X0036548Y0062248D02*
X0032200Y0062248D01*
X0031372Y0060649D02*
X0038146Y0060649D01*
X0039745Y0059051D02*
X0029773Y0059051D01*
X0029870Y0057452D02*
X0041343Y0057452D01*
X0042942Y0055854D02*
X0031469Y0055854D01*
X0032200Y0054255D02*
X0044540Y0054255D01*
X0046139Y0052657D02*
X0032200Y0052657D01*
X0031781Y0051058D02*
X0047738Y0051058D01*
X0049336Y0049460D02*
X0030182Y0049460D01*
X0026500Y0033475D02*
X0026500Y0033475D01*
X0026500Y0031876D02*
X0026500Y0031876D01*
X0038928Y0022285D02*
X0039311Y0022285D01*
X0038267Y0020687D02*
X0040909Y0020687D01*
X0042508Y0019088D02*
X0038184Y0019088D01*
X0037281Y0017490D02*
X0044106Y0017490D01*
X0017279Y0015891D02*
X0011900Y0015891D01*
X0011900Y0014293D02*
X0015042Y0014293D01*
X0014538Y0012694D02*
X0011900Y0012694D01*
X0012767Y0011096D02*
X0014768Y0011096D01*
X0014366Y0009497D02*
X0015920Y0009497D01*
X0063735Y0039869D02*
X0083700Y0039869D01*
X0083700Y0041467D02*
X0062137Y0041467D01*
X0060538Y0043066D02*
X0083700Y0043066D01*
X0083700Y0044664D02*
X0058940Y0044664D01*
X0057341Y0046263D02*
X0083700Y0046263D01*
X0083700Y0047861D02*
X0055743Y0047861D01*
X0065334Y0038270D02*
X0083700Y0038270D01*
X0083700Y0036672D02*
X0066932Y0036672D01*
X0068400Y0035073D02*
X0083700Y0035073D01*
X0083700Y0033475D02*
X0068400Y0033475D01*
X0013400Y0071839D02*
X0011900Y0071839D01*
X0011900Y0073437D02*
X0013400Y0073437D01*
X0013400Y0075036D02*
X0011900Y0075036D01*
X0011900Y0076634D02*
X0014912Y0076634D01*
X0015046Y0079832D02*
X0011900Y0079832D01*
X0011900Y0081430D02*
X0013447Y0081430D01*
X0013400Y0083029D02*
X0011900Y0083029D01*
X0011900Y0084627D02*
X0013400Y0084627D01*
X0012488Y0086226D02*
X0014503Y0086226D01*
X0014087Y0087824D02*
X0067268Y0087824D01*
X0065137Y0089423D02*
X0015685Y0089423D01*
X0011900Y0078233D02*
X0029900Y0078233D01*
M02*
