%
M48
M72
T01C0.01200
T02C0.02362
T03C0.02756
T04C0.04000
%
T01
X25900Y15900
X25900Y24300
X36100Y27300
X36700Y24300
X39700Y33900
X44500Y38700
X26500Y33900
X61300Y21300
X66700Y24900
X66700Y30900
X61300Y12900
X58300Y12900
X53500Y10500
X32500Y78300
T02
X20300Y45237
X20300Y12363
T03
X32111Y37560
X32111Y20040
T04
X17800Y83300
X17800Y73300
X27800Y73300
X27800Y83300
X27800Y63300
X27800Y53300
X17800Y53300
X17800Y63300
M30
