G75*
%MOIN*%
%OFA0B0*%
%FSLAX25Y25*%
%IPPOS*%
%LPD*%
%AMOC8*
5,1,8,0,0,1.08239X$1,22.5*
%
%ADD10C,0.00000*%
%ADD11R,0.04331X0.03937*%
%ADD12C,0.01181*%
%ADD13R,0.03000X0.06000*%
%ADD14R,0.02362X0.01181*%
%ADD15C,0.00400*%
%ADD16R,0.05118X0.05906*%
%ADD17R,0.05315X0.01575*%
D10*
X0010300Y0011300D02*
X0010300Y0086300D01*
X0015300Y0091300D01*
X0065300Y0091300D01*
X0085300Y0076300D01*
X0085300Y0011300D01*
X0080300Y0006300D01*
X0015300Y0006300D01*
X0010300Y0011300D01*
X0640221Y0006300D02*
X0640221Y0400001D01*
D11*
X0055646Y0038300D03*
X0048954Y0038300D03*
D12*
X0045731Y0080122D02*
X0045731Y0082878D01*
X0045731Y0080122D02*
X0042975Y0080122D01*
X0042975Y0082878D01*
X0045731Y0082878D01*
X0045731Y0081302D02*
X0042975Y0081302D01*
X0042975Y0082482D02*
X0045731Y0082482D01*
X0038825Y0082878D02*
X0038825Y0080122D01*
X0036069Y0080122D01*
X0036069Y0082878D01*
X0038825Y0082878D01*
X0038825Y0081302D02*
X0036069Y0081302D01*
X0036069Y0082482D02*
X0038825Y0082482D01*
X0060725Y0082878D02*
X0060725Y0080122D01*
X0057969Y0080122D01*
X0057969Y0082878D01*
X0060725Y0082878D01*
X0060725Y0081302D02*
X0057969Y0081302D01*
X0057969Y0082482D02*
X0060725Y0082482D01*
X0067631Y0082878D02*
X0067631Y0080122D01*
X0064875Y0080122D01*
X0064875Y0082878D01*
X0067631Y0082878D01*
X0067631Y0081302D02*
X0064875Y0081302D01*
X0064875Y0082482D02*
X0067631Y0082482D01*
D13*
X0066300Y0065800D03*
X0081300Y0065800D03*
X0081300Y0043800D03*
X0081300Y0035800D03*
X0066300Y0035800D03*
X0066300Y0043800D03*
X0066300Y0013800D03*
X0081300Y0013800D03*
D14*
X0052737Y0017879D03*
X0052737Y0019847D03*
X0052737Y0021816D03*
X0052737Y0023784D03*
X0052737Y0025753D03*
X0052737Y0027721D03*
X0048800Y0027721D03*
X0048800Y0025753D03*
X0048800Y0023784D03*
X0048800Y0021816D03*
X0048800Y0019847D03*
X0048800Y0017879D03*
X0044863Y0017879D03*
X0044863Y0019847D03*
X0044863Y0021816D03*
X0044863Y0023784D03*
X0044863Y0025753D03*
X0044863Y0027721D03*
D15*
X0044174Y0030969D02*
X0043583Y0030969D01*
X0043583Y0032741D01*
X0044174Y0032741D01*
X0044174Y0030969D01*
X0044174Y0031008D02*
X0043583Y0031008D01*
X0043583Y0031406D02*
X0044174Y0031406D01*
X0044174Y0031805D02*
X0043583Y0031805D01*
X0043583Y0032203D02*
X0044174Y0032203D01*
X0044174Y0032602D02*
X0043583Y0032602D01*
X0042206Y0032602D02*
X0041615Y0032602D01*
X0041615Y0032741D02*
X0042206Y0032741D01*
X0042206Y0030969D01*
X0041812Y0030969D01*
X0041615Y0031166D01*
X0041615Y0032741D01*
X0041615Y0032203D02*
X0042206Y0032203D01*
X0042206Y0031805D02*
X0041615Y0031805D01*
X0041615Y0031406D02*
X0042206Y0031406D01*
X0042206Y0031008D02*
X0041773Y0031008D01*
X0040607Y0029812D02*
X0038859Y0029812D01*
X0038859Y0029985D02*
X0038859Y0029394D01*
X0040631Y0029394D01*
X0040631Y0029788D01*
X0040434Y0029985D01*
X0038859Y0029985D01*
X0038859Y0029414D02*
X0040631Y0029414D01*
X0040631Y0028017D02*
X0040631Y0027426D01*
X0038859Y0027426D01*
X0038859Y0028017D01*
X0040631Y0028017D01*
X0040631Y0027820D02*
X0038859Y0027820D01*
X0038859Y0026048D02*
X0038859Y0025457D01*
X0040631Y0025457D01*
X0040631Y0026048D01*
X0038859Y0026048D01*
X0038859Y0025827D02*
X0040631Y0025827D01*
X0040631Y0024080D02*
X0040631Y0023489D01*
X0038859Y0023489D01*
X0038859Y0024080D01*
X0040631Y0024080D01*
X0040631Y0023834D02*
X0038859Y0023834D01*
X0038859Y0022111D02*
X0038859Y0021520D01*
X0040631Y0021520D01*
X0040631Y0022111D01*
X0038859Y0022111D01*
X0038859Y0021842D02*
X0040631Y0021842D01*
X0040631Y0020143D02*
X0040631Y0019552D01*
X0038859Y0019552D01*
X0038859Y0020143D01*
X0040631Y0020143D01*
X0040631Y0019849D02*
X0038859Y0019849D01*
X0038859Y0018174D02*
X0038859Y0017583D01*
X0040631Y0017583D01*
X0040631Y0018174D01*
X0038859Y0018174D01*
X0038859Y0017857D02*
X0040631Y0017857D01*
X0040631Y0016206D02*
X0038859Y0016206D01*
X0038859Y0015615D01*
X0040434Y0015615D01*
X0040631Y0015812D01*
X0040631Y0016206D01*
X0040631Y0015864D02*
X0038859Y0015864D01*
X0041615Y0014434D02*
X0041812Y0014631D01*
X0042206Y0014631D01*
X0042206Y0012859D01*
X0041615Y0012859D01*
X0041615Y0014434D01*
X0041615Y0014270D02*
X0042206Y0014270D01*
X0042206Y0013872D02*
X0041615Y0013872D01*
X0041615Y0013473D02*
X0042206Y0013473D01*
X0042206Y0013075D02*
X0041615Y0013075D01*
X0043583Y0013075D02*
X0044174Y0013075D01*
X0044174Y0012859D02*
X0043583Y0012859D01*
X0043583Y0014631D01*
X0044174Y0014631D01*
X0044174Y0012859D01*
X0044174Y0013473D02*
X0043583Y0013473D01*
X0043583Y0013872D02*
X0044174Y0013872D01*
X0044174Y0014270D02*
X0043583Y0014270D01*
X0045552Y0014270D02*
X0046143Y0014270D01*
X0046143Y0014631D02*
X0046143Y0012859D01*
X0045552Y0012859D01*
X0045552Y0014631D01*
X0046143Y0014631D01*
X0046143Y0013872D02*
X0045552Y0013872D01*
X0045552Y0013473D02*
X0046143Y0013473D01*
X0046143Y0013075D02*
X0045552Y0013075D01*
X0047520Y0013075D02*
X0048111Y0013075D01*
X0048111Y0012859D02*
X0047520Y0012859D01*
X0047520Y0014631D01*
X0048111Y0014631D01*
X0048111Y0012859D01*
X0048111Y0013473D02*
X0047520Y0013473D01*
X0047520Y0013872D02*
X0048111Y0013872D01*
X0048111Y0014270D02*
X0047520Y0014270D01*
X0049489Y0014270D02*
X0050080Y0014270D01*
X0050080Y0014631D02*
X0050080Y0012859D01*
X0049489Y0012859D01*
X0049489Y0014631D01*
X0050080Y0014631D01*
X0050080Y0013872D02*
X0049489Y0013872D01*
X0049489Y0013473D02*
X0050080Y0013473D01*
X0050080Y0013075D02*
X0049489Y0013075D01*
X0051457Y0013075D02*
X0052048Y0013075D01*
X0052048Y0012859D02*
X0051457Y0012859D01*
X0051457Y0014631D01*
X0052048Y0014631D01*
X0052048Y0012859D01*
X0052048Y0013473D02*
X0051457Y0013473D01*
X0051457Y0013872D02*
X0052048Y0013872D01*
X0052048Y0014270D02*
X0051457Y0014270D01*
X0053426Y0014270D02*
X0054017Y0014270D01*
X0054017Y0014631D02*
X0054017Y0012859D01*
X0053426Y0012859D01*
X0053426Y0014631D01*
X0054017Y0014631D01*
X0054017Y0013872D02*
X0053426Y0013872D01*
X0053426Y0013473D02*
X0054017Y0013473D01*
X0054017Y0013075D02*
X0053426Y0013075D01*
X0055394Y0013075D02*
X0055985Y0013075D01*
X0055985Y0012859D02*
X0055394Y0012859D01*
X0055394Y0014631D01*
X0055788Y0014631D01*
X0055985Y0014434D01*
X0055985Y0012859D01*
X0055985Y0013473D02*
X0055394Y0013473D01*
X0055394Y0013872D02*
X0055985Y0013872D01*
X0055985Y0014270D02*
X0055394Y0014270D01*
X0056969Y0015812D02*
X0056969Y0016206D01*
X0058741Y0016206D01*
X0058741Y0015615D01*
X0057166Y0015615D01*
X0056969Y0015812D01*
X0056969Y0015864D02*
X0058741Y0015864D01*
X0058741Y0017583D02*
X0056969Y0017583D01*
X0056969Y0018174D01*
X0058741Y0018174D01*
X0058741Y0017583D01*
X0058741Y0017857D02*
X0056969Y0017857D01*
X0056969Y0019552D02*
X0056969Y0020143D01*
X0058741Y0020143D01*
X0058741Y0019552D01*
X0056969Y0019552D01*
X0056969Y0019849D02*
X0058741Y0019849D01*
X0058741Y0021520D02*
X0056969Y0021520D01*
X0056969Y0022111D01*
X0058741Y0022111D01*
X0058741Y0021520D01*
X0058741Y0021842D02*
X0056969Y0021842D01*
X0056969Y0023489D02*
X0056969Y0024080D01*
X0058741Y0024080D01*
X0058741Y0023489D01*
X0056969Y0023489D01*
X0056969Y0023834D02*
X0058741Y0023834D01*
X0058741Y0025457D02*
X0056969Y0025457D01*
X0056969Y0026048D01*
X0058741Y0026048D01*
X0058741Y0025457D01*
X0058741Y0025827D02*
X0056969Y0025827D01*
X0056969Y0027426D02*
X0056969Y0028017D01*
X0058741Y0028017D01*
X0058741Y0027426D01*
X0056969Y0027426D01*
X0056969Y0027820D02*
X0058741Y0027820D01*
X0058741Y0029394D02*
X0056969Y0029394D01*
X0056969Y0029788D01*
X0057166Y0029985D01*
X0058741Y0029985D01*
X0058741Y0029394D01*
X0058741Y0029414D02*
X0056969Y0029414D01*
X0056993Y0029812D02*
X0058741Y0029812D01*
X0055985Y0031166D02*
X0055985Y0032741D01*
X0055394Y0032741D01*
X0055394Y0030969D01*
X0055788Y0030969D01*
X0055985Y0031166D01*
X0055827Y0031008D02*
X0055394Y0031008D01*
X0055394Y0031406D02*
X0055985Y0031406D01*
X0055985Y0031805D02*
X0055394Y0031805D01*
X0055394Y0032203D02*
X0055985Y0032203D01*
X0055985Y0032602D02*
X0055394Y0032602D01*
X0054017Y0032602D02*
X0053426Y0032602D01*
X0053426Y0032741D02*
X0054017Y0032741D01*
X0054017Y0030969D01*
X0053426Y0030969D01*
X0053426Y0032741D01*
X0053426Y0032203D02*
X0054017Y0032203D01*
X0054017Y0031805D02*
X0053426Y0031805D01*
X0053426Y0031406D02*
X0054017Y0031406D01*
X0054017Y0031008D02*
X0053426Y0031008D01*
X0052048Y0031008D02*
X0051457Y0031008D01*
X0051457Y0030969D02*
X0051457Y0032741D01*
X0052048Y0032741D01*
X0052048Y0030969D01*
X0051457Y0030969D01*
X0051457Y0031406D02*
X0052048Y0031406D01*
X0052048Y0031805D02*
X0051457Y0031805D01*
X0051457Y0032203D02*
X0052048Y0032203D01*
X0052048Y0032602D02*
X0051457Y0032602D01*
X0050080Y0032602D02*
X0049489Y0032602D01*
X0049489Y0032741D02*
X0050080Y0032741D01*
X0050080Y0030969D01*
X0049489Y0030969D01*
X0049489Y0032741D01*
X0049489Y0032203D02*
X0050080Y0032203D01*
X0050080Y0031805D02*
X0049489Y0031805D01*
X0049489Y0031406D02*
X0050080Y0031406D01*
X0050080Y0031008D02*
X0049489Y0031008D01*
X0048111Y0031008D02*
X0047520Y0031008D01*
X0047520Y0030969D02*
X0047520Y0032741D01*
X0048111Y0032741D01*
X0048111Y0030969D01*
X0047520Y0030969D01*
X0047520Y0031406D02*
X0048111Y0031406D01*
X0048111Y0031805D02*
X0047520Y0031805D01*
X0047520Y0032203D02*
X0048111Y0032203D01*
X0048111Y0032602D02*
X0047520Y0032602D01*
X0046143Y0032602D02*
X0045552Y0032602D01*
X0045552Y0032741D02*
X0046143Y0032741D01*
X0046143Y0030969D01*
X0045552Y0030969D01*
X0045552Y0032741D01*
X0045552Y0032203D02*
X0046143Y0032203D01*
X0046143Y0031805D02*
X0045552Y0031805D01*
X0045552Y0031406D02*
X0046143Y0031406D01*
X0046143Y0031008D02*
X0045552Y0031008D01*
D16*
X0045146Y0052800D03*
X0038454Y0052800D03*
X0038454Y0062800D03*
X0045146Y0062800D03*
X0045446Y0073800D03*
X0038754Y0073800D03*
X0060854Y0073700D03*
X0067546Y0073700D03*
D17*
X0031324Y0033918D03*
X0031324Y0031359D03*
X0031324Y0028800D03*
X0031324Y0026241D03*
X0031324Y0023682D03*
M02*
